<svg width="16" height="16" viewBox="0 0 16 16" fill="none" xmlns="http://www.w3.org/2000/svg">
<g clip-path="url(#clip0_79_96)">
<path fill-rule="evenodd" clip-rule="evenodd" d="M8.636 3.5C8.636 3.36739 8.58332 3.24021 8.48955 3.14645C8.39579 3.05268 8.26861 3 8.136 3H1.5C1.10218 3 0.720644 3.15804 0.43934 3.43934C0.158035 3.72064 0 4.10218 0 4.5L0 14.5C0 14.8978 0.158035 15.2794 0.43934 15.5607C0.720644 15.842 1.10218 16 1.5 16H11.5C11.8978 16 12.2794 15.842 12.5607 15.5607C12.842 15.2794 13 14.8978 13 14.5V7.864C13 7.73139 12.9473 7.60421 12.8536 7.51045C12.7598 7.41668 12.6326 7.364 12.5 7.364C12.3674 7.364 12.2402 7.41668 12.1464 7.51045C12.0527 7.60421 12 7.73139 12 7.864V14.5C12 14.6326 11.9473 14.7598 11.8536 14.8536C11.7598 14.9473 11.6326 15 11.5 15H1.5C1.36739 15 1.24021 14.9473 1.14645 14.8536C1.05268 14.7598 1 14.6326 1 14.5V4.5C1 4.36739 1.05268 4.24021 1.14645 4.14645C1.24021 4.05268 1.36739 4 1.5 4H8.136C8.26861 4 8.39579 3.94732 8.48955 3.85355C8.58332 3.75979 8.636 3.63261 8.636 3.5Z" fill="#9B9DAD"/>
<path d="M15 1.39997C15 1.29389 14.9579 1.19216 14.8829 1.11715C14.8078 1.04214 14.7061 1 14.6 1H10.6003C10.4942 1 10.3925 1.04214 10.3175 1.11715C10.2424 1.19216 10.2003 1.29389 10.2003 1.39997C10.2003 1.50605 10.2424 1.60779 10.3175 1.6828C10.3925 1.75781 10.4942 1.79995 10.6003 1.79995H13.6345L7.1173 8.31634C7.08011 8.35353 7.05061 8.39767 7.03048 8.44626C7.01036 8.49485 7 8.54693 7 8.59952C7 8.65211 7.01036 8.70419 7.03048 8.75278C7.05061 8.80137 7.08011 8.84551 7.1173 8.8827C7.15449 8.91989 7.19863 8.94939 7.24722 8.96952C7.29581 8.98964 7.34789 9 7.40048 9C7.45307 9 7.50515 8.98964 7.55374 8.96952C7.60233 8.94939 7.64647 8.91989 7.68366 8.8827L14.2001 2.36551V5.39972C14.2001 5.5058 14.2422 5.60754 14.3172 5.68255C14.3922 5.75756 14.4939 5.7997 14.6 5.7997C14.7061 5.7997 14.8078 5.75756 14.8829 5.68255C14.9579 5.60754 15 5.5058 15 5.39972V1.39997Z" fill="#9B9DAD"/>
<path d="M15 1.39997C15 1.29389 14.9579 1.19216 14.8829 1.11715C14.8078 1.04214 14.7061 1 14.6 1H10.6003C10.4942 1 10.3925 1.04214 10.3175 1.11715C10.2424 1.19216 10.2003 1.29389 10.2003 1.39997C10.2003 1.50605 10.2424 1.60779 10.3175 1.6828C10.3925 1.75781 10.4942 1.79995 10.6003 1.79995H13.6345L7.1173 8.31634C7.08011 8.35353 7.05061 8.39767 7.03048 8.44626C7.01036 8.49485 7 8.54693 7 8.59952C7 8.65211 7.01036 8.70419 7.03048 8.75278C7.05061 8.80137 7.08011 8.84551 7.1173 8.8827C7.15449 8.91989 7.19863 8.94939 7.24722 8.96952C7.29581 8.98964 7.34789 9 7.40048 9C7.45307 9 7.50515 8.98964 7.55374 8.96952C7.60233 8.94939 7.64647 8.91989 7.68366 8.8827L14.2001 2.36551V5.39972C14.2001 5.5058 14.2422 5.60754 14.3172 5.68255C14.3922 5.75756 14.4939 5.7997 14.6 5.7997C14.7061 5.7997 14.8078 5.75756 14.8829 5.68255C14.9579 5.60754 15 5.5058 15 5.39972V1.39997Z" stroke="#9B9DAD"/>
</g>
<defs>
<clipPath id="clip0_79_96">
<rect width="16" height="16" fill="white"/>
</clipPath>
</defs>
</svg>
