<svg width="16" height="16" viewBox="0 0 16 16" fill="none" xmlns="http://www.w3.org/2000/svg">
<path d="M7.313 1.262C7.49867 1.08647 7.74449 0.988659 8 0.988659C8.25551 0.988659 8.50133 1.08647 8.687 1.262L13.531 5.841C13.831 6.124 14 6.519 14 6.931V12.501C14 12.8988 13.842 13.2804 13.5607 13.5617C13.2794 13.843 12.8978 14.001 12.5 14.001H10.5C10.3029 14.001 10.1078 13.9622 9.92574 13.8867C9.74369 13.8113 9.57829 13.7007 9.43899 13.5613C9.29968 13.4219 9.18922 13.2564 9.11389 13.0743C9.03857 12.8922 8.99987 12.6971 9 12.5V10C9 9.86739 8.94732 9.74022 8.85355 9.64645C8.75979 9.55268 8.63261 9.5 8.5 9.5H7.5C7.36739 9.5 7.24021 9.55268 7.14645 9.64645C7.05268 9.74022 7 9.86739 7 10V12.5C7 12.8978 6.84196 13.2794 6.56066 13.5607C6.27936 13.842 5.89782 14 5.5 14H3.5C3.10218 14 2.72064 13.842 2.43934 13.5607C2.15804 13.2794 2 12.8978 2 12.5V6.93C2 6.518 2.17 6.123 2.47 5.84L7.313 1.26V1.262ZM8 1.988L3.156 6.568C3.10682 6.61462 3.06764 6.67075 3.04082 6.73298C3.014 6.79521 3.00012 6.86224 3 6.93V12.5C3 12.6326 3.05268 12.7598 3.14645 12.8536C3.24021 12.9473 3.36739 13 3.5 13H5.5C5.63261 13 5.75979 12.9473 5.85355 12.8536C5.94732 12.7598 6 12.6326 6 12.5V10C6 9.60218 6.15804 9.22065 6.43934 8.93934C6.72064 8.65804 7.10218 8.5 7.5 8.5H8.5C8.89782 8.5 9.27936 8.65804 9.56066 8.93934C9.84196 9.22065 10 9.60218 10 10V12.5C10 12.6326 10.0527 12.7598 10.1464 12.8536C10.2402 12.9473 10.3674 13 10.5 13H12.5C12.6326 13 12.7598 12.9473 12.8536 12.8536C12.9473 12.7598 13 12.6326 13 12.5V6.93C13 6.86207 12.9862 6.79485 12.9594 6.73244C12.9326 6.67003 12.8933 6.61374 12.844 6.567L8 1.988Z" fill="#F0F3BD"/>
</svg>
